<svg class="icon icon-tabler icon-tabler-drone" width="24" height="24" stroke-width="2" stroke="currentColor" fill="none" stroke-linecap="round" stroke-linejoin="round" xmlns="http://www.w3.org/2000/svg"><path d="m6.04 2.023-.38.062c-1.324.215-2.556 1.15-3.18 2.413-.315.637-.438 1.114-.467 1.802-.063 1.527.603 2.915 1.841 3.835.672.5 1.741.869 2.352.814.516-.047.774-.396.774-1.049 0-.308-.014-.382-.093-.51-.131-.209-.371-.337-.811-.43-.55-.116-.981-.34-1.335-.696a2.492 2.492 0 0 1-.473-2.899 2.684 2.684 0 0 1 1.097-1.097 2.492 2.492 0 0 1 2.899.473c.351.35.577.783.693 1.326.099.464.201.664.411.803.151.1.2.11.529.11.31 0 .396-.016.59-.106.526-.247.603-.772.266-1.812-.476-1.47-1.779-2.631-3.329-2.967-.275-.06-1.181-.107-1.384-.072m11-.005a8.202 8.202 0 0 1-.36.063c-1.05.171-2.123.846-2.814 1.773-.643.862-1.004 2.226-.718 2.716.164.28.6.453 1.059.42.5-.036.692-.247.836-.923.116-.543.342-.976.693-1.326a2.492 2.492 0 0 1 2.899-.473c.424.208.889.673 1.097 1.097.486.989.3 2.123-.473 2.899-.356.357-.785.58-1.339.697-.436.092-.696.232-.818.44-.066.112-.082.208-.082.499 0 .462.12.753.384.927.156.103.201.113.533.112.999-.002 2.184-.606 2.981-1.519.829-.95 1.233-2.371 1.028-3.62a4.517 4.517 0 0 0-3.52-3.704c-.263-.057-1.247-.112-1.386-.078M6.26 5.487c-.438.164-.821.642-.819 1.022.002.333.084.431 1.861 2.212L9 10.422v3.156l-1.698 1.701c-1.271 1.274-1.718 1.746-1.779 1.881-.162.359-.074.693.275 1.042.352.351.685.439 1.039.272.135-.063.634-.535 1.884-1.78L10.422 15H13.577l1.722 1.714c1.88 1.873 1.889 1.88 2.285 1.836.411-.047.927-.572.966-.985.037-.376-.004-.427-1.856-2.286L15 13.578v-3.156l1.694-1.701c1.849-1.857 1.893-1.91 1.857-2.283-.037-.382-.456-.847-.867-.962-.219-.062-.458-.006-.698.162-.091.064-.895.846-1.786 1.739L13.58 9h-3.158L8.721 7.307c-1.135-1.13-1.754-1.718-1.859-1.766-.198-.091-.445-.113-.602-.054M13 12v1h-2v-2h2v1m-7.26 1.065-.39.098c-1.197.3-2.301 1.187-2.86 2.297-1.375 2.73.287 5.988 3.31 6.486.485.08 1.287.051 1.724-.062.959-.248 1.741-.724 2.373-1.444.627-.715 1.04-1.707 1.042-2.503.001-.328-.009-.379-.107-.526a.805.805 0 0 0-.34-.277c-.203-.1-.277-.114-.595-.114-.329 0-.378.01-.529.11-.21.139-.312.339-.411.803-.257 1.204-1.164 2.003-2.339 2.058-.76.036-1.356-.199-1.899-.747-.971-.981-.961-2.521.022-3.508.35-.351.783-.577 1.326-.693.464-.099.664-.201.803-.411.1-.151.11-.2.11-.529 0-.31-.016-.396-.106-.59-.154-.329-.341-.443-.746-.457a2.382 2.382 0 0 0-.388.009m11.852.012c-.331.107-.549.453-.582.919-.046.643.169.886.923 1.047.543.116.976.342 1.326.693.773.776.959 1.91.473 2.899-.207.421-.674.89-1.092 1.095a2.35 2.35 0 0 1-1.26.26c-1.173-.053-2.08-.851-2.337-2.057-.098-.459-.201-.664-.403-.797-.414-.275-1.294-.094-1.502.308-.266.515.092 1.848.727 2.702a4.62 4.62 0 0 0 2.685 1.757c.409.097 1.194.117 1.65.043 2.194-.361 3.8-2.24 3.8-4.446 0-.873-.282-1.796-.768-2.511a4.603 4.603 0 0 0-2.58-1.831c-.347-.093-.894-.135-1.06-.081" fill="#000" fill-rule="evenodd" stroke="none"/></svg>