<svg enable-background="new 0 0 92 92" height="92" viewBox="0 0 92 92" width="92" xmlns="http://www.w3.org/2000/svg"><path d="m91.7 25.4-9.5 45.8c-.3 1.4-1.5 2.4-2.9 2.4-.2 0-.4 0-.6-.1-1.6-.3-2.7-1.9-2.3-3.5l8.9-42.8-57.4-11.7-1.4 6.4c-.4 1.6-2 2.6-3.6 2.3-1.6-.4-2.6-2-2.3-3.6l2.1-9.3c.4-1.6 1.9-2.6 3.5-2.3l63.2 12.8c.8.2 1.5.6 1.9 1.3s.5 1.5.4 2.3zm-18.7 54.6c0 2.2-1.8 4-4 4h-65c-2.2 0-4-1.8-4-4v-49c0-2.2 1.8-4 4-4h65c2.2 0 4 1.8 4 4zm-65-45v24.7l16.9-13.7c1.3-1.1 3.4-1.1 4.7.1l19 16.8 7.9-6.8c1.3-1.1 2.8-1.1 4.1 0l3.3 3.4v-24.5zm56 41v-7.3l-5.6-5.3-7.6 6.8c-1.3 1.1-3.2 1.1-4.5 0l-19.3-16.9-19 15.5v7.2zm-16.6-24.7c3.4 0 6.1-2.7 6.1-6.1s-2.8-6.1-6.1-6.1c-3.4 0-6.1 2.7-6.1 6.1-.1 3.3 2.7 6.1 6.1 6.1z"/></svg>